I did not rip it myself, that's why the quality isn't great. But that will do for the people who absolutely want to watch the interview now.


Format                                   : MPEG-4
Format profile                           : Base Media / Version 2
Codec ID                                 : mp42
File size                                : 505 MiB
Duration                                 : 1h 8mn
Overall bit rate mode                    : Variable
Overall bit rate                         : 1 035 Kbps
Encoded date                             : UTC 2012-04-08 14:48:23
Tagged date                              : UTC 2012-04-08 15:19:36

Video
ID                                       : 1
Format                                   : AVC
Format/Info                              : Advanced Video Codec
Format profile                           : Main@L3.1
Format settings, CABAC                   : Yes
Format settings, ReFrames                : 4 frames
Codec ID                                 : avc1
Codec ID/Info                            : Advanced Video Coding
Duration                                 : 1h 8mn
Bit rate mode                            : Variable
Bit rate                                 : 898 Kbps
Width                                    : 854 pixels
Height                                   : 480 pixels
Display aspect ratio                     : 16:9
Frame rate mode                          : Variable
Frame rate                               : 29.970 fps
Minimum frame rate                       : 29.412 fps
Maximum frame rate                       : 30.303 fps
Color space                              : YUV
Chroma subsampling                       : 4:2:0
Bit depth                                : 8 bits
Scan type                                : Progressive
Bits/(Pixel*Frame)                       : 0.073
Stream size                              : 438 MiB (87%)
Writing library                          : x264 core 120

Audio
ID                                       : 2
Format                                   : AAC
Format/Info                              : Advanced Audio Codec
Format profile                           : LC
Codec ID                                 : 40
Duration                                 : 1h 8mn
Source duration                          : 1h 8mn
Bit rate mode                            : Variable
Bit rate                                 : 132 Kbps
Maximum bit rate                         : 228 Kbps
Channel(s)                               : 2 channels
Channel positions                        : Front: L R
Sampling rate                            : 44.1 KHz
Compression mode                         : Lossy
Stream size                              : 64.1 MiB (13%)
Source stream size                       : 64.1 MiB (13%)
Encoded date                             : UTC 2012-04-08 14:48:23
Tagged date                              : UTC 2012-04-08 15:19:36
